{
    "asset" : {
        "generator" : "Khronos glTF Blender I/O v1.7.33",
        "version" : "2.0"
    },
    "scene" : 0,
    "scenes" : [
        {
            "name" : "Scene",
            "nodes" : [
                0,
                1,
                2,
                3,
                4
            ]
        }
    ],
    "nodes" : [
        {
            "mesh" : 0,
            "name" : "PlaneBody",
            "translation" : [
                0,
                1.1042336225509644,
                0
            ]
        },
        {
            "mesh" : 1,
            "name" : "MainWings",
            "translation" : [
                -1.2343450784683228,
                1.1268267631530762,
                -3.1321167945861816
            ]
        },
        {
            "mesh" : 2,
            "name" : "RearWings",
            "translation" : [
                -5.3535685539245605,
                1.4634227752685547,
                -1.2362463474273682
            ]
        },
        {
            "mesh" : 3,
            "name" : "TopWing",
            "translation" : [
                -5.404958724975586,
                2.6075994968414307,
                0.0009327945299446583
            ]
        },
        {
            "mesh" : 4,
            "name" : "Engine",
            "translation" : [
                -0.18900713324546814,
                0.7837936282157898,
                1.8264104127883911
            ]
        }
    ],
    "materials" : [
        {
            "doubleSided" : true,
            "name" : "Material.001",
            "pbrMetallicRoughness" : {
                "baseColorTexture" : {
                    "index" : 0
                },
                "metallicFactor" : 0,
                "roughnessFactor" : 0.5
            }
        },
        {
            "doubleSided" : true,
            "name" : "Material.002",
            "pbrMetallicRoughness" : {
                "baseColorTexture" : {
                    "index" : 1
                },
                "metallicFactor" : 0,
                "roughnessFactor" : 0.5
            }
        },
        {
            "doubleSided" : true,
            "name" : "Material.003",
            "pbrMetallicRoughness" : {
                "baseColorTexture" : {
                    "index" : 2
                },
                "metallicFactor" : 0,
                "roughnessFactor" : 0.5
            }
        }
    ],
    "meshes" : [
        {
            "name" : "Cylinder",
            "primitives" : [
                {
                    "attributes" : {
                        "POSITION" : 0,
                        "NORMAL" : 1,
                        "TEXCOORD_0" : 2
                    },
                    "indices" : 3,
                    "material" : 0
                }
            ]
        },
        {
            "name" : "Plane",
            "primitives" : [
                {
                    "attributes" : {
                        "POSITION" : 4,
                        "NORMAL" : 5,
                        "TEXCOORD_0" : 6
                    },
                    "indices" : 7,
                    "material" : 1
                }
            ]
        },
        {
            "name" : "Plane.001",
            "primitives" : [
                {
                    "attributes" : {
                        "POSITION" : 8,
                        "NORMAL" : 9,
                        "TEXCOORD_0" : 10
                    },
                    "indices" : 11
                }
            ]
        },
        {
            "name" : "Plane.002",
            "primitives" : [
                {
                    "attributes" : {
                        "POSITION" : 12,
                        "NORMAL" : 13,
                        "TEXCOORD_0" : 14
                    },
                    "indices" : 15
                }
            ]
        },
        {
            "name" : "Cylinder.001",
            "primitives" : [
                {
                    "attributes" : {
                        "POSITION" : 16,
                        "NORMAL" : 17,
                        "TEXCOORD_0" : 18
                    },
                    "indices" : 19,
                    "material" : 2
                }
            ]
        }
    ],
    "textures" : [
        {
            "sampler" : 0,
            "source" : 0
        },
        {
            "sampler" : 0,
            "source" : 1
        },
        {
            "sampler" : 0,
            "source" : 2
        }
    ],
    "images" : [
        {
            "bufferView" : 4,
            "mimeType" : "image/png",
            "name" : "Material.001 Base Color"
        },
        {
            "bufferView" : 9,
            "mimeType" : "image/png",
            "name" : "Material"
        },
        {
            "bufferView" : 22,
            "mimeType" : "image/png",
            "name" : "Material"
        }
    ],
    "accessors" : [
        {
            "bufferView" : 0,
            "componentType" : 5126,
            "count" : 1845,
            "max" : [
                4.741519927978516,
                0.956985592842102,
                1.07108473777771
            ],
            "min" : [
                -6.178960800170898,
                -0.9858612418174744,
                -1.0710846185684204
            ],
            "type" : "VEC3"
        },
        {
            "bufferView" : 1,
            "componentType" : 5126,
            "count" : 1845,
            "type" : "VEC3"
        },
        {
            "bufferView" : 2,
            "componentType" : 5126,
            "count" : 1845,
            "type" : "VEC2"
        },
        {
            "bufferView" : 3,
            "componentType" : 5123,
            "count" : 8736,
            "type" : "SCALAR"
        },
        {
            "bufferView" : 5,
            "componentType" : 5126,
            "count" : 2126,
            "max" : [
                2.432213068008423,
                0.24400988221168518,
                8.179953575134277
            ],
            "min" : [
                -1.4104090929031372,
                -0.24476023018360138,
                -1.915719985961914
            ],
            "type" : "VEC3"
        },
        {
            "bufferView" : 6,
            "componentType" : 5126,
            "count" : 2126,
            "type" : "VEC3"
        },
        {
            "bufferView" : 7,
            "componentType" : 5126,
            "count" : 2126,
            "type" : "VEC2"
        },
        {
            "bufferView" : 8,
            "componentType" : 5123,
            "count" : 10752,
            "type" : "SCALAR"
        },
        {
            "bufferView" : 10,
            "componentType" : 5126,
            "count" : 2134,
            "max" : [
                0.9657641649246216,
                0.2184106409549713,
                3.011760950088501
            ],
            "min" : [
                -0.2781204283237457,
                -0.16108545660972595,
                -0.5392681956291199
            ],
            "type" : "VEC3"
        },
        {
            "bufferView" : 11,
            "componentType" : 5126,
            "count" : 2134,
            "type" : "VEC3"
        },
        {
            "bufferView" : 12,
            "componentType" : 5126,
            "count" : 2134,
            "type" : "VEC2"
        },
        {
            "bufferView" : 13,
            "componentType" : 5123,
            "count" : 10752,
            "type" : "SCALAR"
        },
        {
            "bufferView" : 14,
            "componentType" : 5126,
            "count" : 1010,
            "max" : [
                0.746730387210846,
                0.4899812936782837,
                0.14197690784931183
            ],
            "min" : [
                -0.5343706607818604,
                -0.6065932512283325,
                -0.1419769823551178
            ],
            "type" : "VEC3"
        },
        {
            "bufferView" : 15,
            "componentType" : 5126,
            "count" : 1010,
            "type" : "VEC3"
        },
        {
            "bufferView" : 16,
            "componentType" : 5126,
            "count" : 1010,
            "type" : "VEC2"
        },
        {
            "bufferView" : 17,
            "componentType" : 5123,
            "count" : 5376,
            "type" : "SCALAR"
        },
        {
            "bufferView" : 18,
            "componentType" : 5126,
            "count" : 904,
            "max" : [
                1.1502898931503296,
                0.3991519808769226,
                0.40078338980674744
            ],
            "min" : [
                -0.5056989789009094,
                -0.3991519808769226,
                -4.0536041259765625
            ],
            "type" : "VEC3"
        },
        {
            "bufferView" : 19,
            "componentType" : 5126,
            "count" : 904,
            "type" : "VEC3"
        },
        {
            "bufferView" : 20,
            "componentType" : 5126,
            "count" : 904,
            "type" : "VEC2"
        },
        {
            "bufferView" : 21,
            "componentType" : 5123,
            "count" : 4032,
            "type" : "SCALAR"
        }
    ],
    "bufferViews" : [
        {
            "buffer" : 0,
            "byteLength" : 22140,
            "byteOffset" : 0
        },
        {
            "buffer" : 0,
            "byteLength" : 22140,
            "byteOffset" : 22140
        },
        {
            "buffer" : 0,
            "byteLength" : 14760,
            "byteOffset" : 44280
        },
        {
            "buffer" : 0,
            "byteLength" : 17472,
            "byteOffset" : 59040
        },
        {
            "buffer" : 0,
            "byteLength" : 204656,
            "byteOffset" : 76512
        },
        {
            "buffer" : 0,
            "byteLength" : 25512,
            "byteOffset" : 281168
        },
        {
            "buffer" : 0,
            "byteLength" : 25512,
            "byteOffset" : 306680
        },
        {
            "buffer" : 0,
            "byteLength" : 17008,
            "byteOffset" : 332192
        },
        {
            "buffer" : 0,
            "byteLength" : 21504,
            "byteOffset" : 349200
        },
        {
            "buffer" : 0,
            "byteLength" : 205203,
            "byteOffset" : 370704
        },
        {
            "buffer" : 0,
            "byteLength" : 25608,
            "byteOffset" : 575908
        },
        {
            "buffer" : 0,
            "byteLength" : 25608,
            "byteOffset" : 601516
        },
        {
            "buffer" : 0,
            "byteLength" : 17072,
            "byteOffset" : 627124
        },
        {
            "buffer" : 0,
            "byteLength" : 21504,
            "byteOffset" : 644196
        },
        {
            "buffer" : 0,
            "byteLength" : 12120,
            "byteOffset" : 665700
        },
        {
            "buffer" : 0,
            "byteLength" : 12120,
            "byteOffset" : 677820
        },
        {
            "buffer" : 0,
            "byteLength" : 8080,
            "byteOffset" : 689940
        },
        {
            "buffer" : 0,
            "byteLength" : 10752,
            "byteOffset" : 698020
        },
        {
            "buffer" : 0,
            "byteLength" : 10848,
            "byteOffset" : 708772
        },
        {
            "buffer" : 0,
            "byteLength" : 10848,
            "byteOffset" : 719620
        },
        {
            "buffer" : 0,
            "byteLength" : 7232,
            "byteOffset" : 730468
        },
        {
            "buffer" : 0,
            "byteLength" : 8064,
            "byteOffset" : 737700
        },
        {
            "buffer" : 0,
            "byteLength" : 390035,
            "byteOffset" : 745764
        }
    ],
    "samplers" : [
        {
            "magFilter" : 9729,
            "minFilter" : 9987
        }
    ],
    "buffers" : [
        {
            "byteLength" : 1135800,
            "uri" : "data:application/octet-stream;base64,"
        }
    ]
}
