{
    "asset" : {
        "generator" : "Khronos glTF Blender I/O v1.7.33",
        "version" : "2.0"
    },
    "scene" : 0,
    "scenes" : [
        {
            "name" : "Scene",
            "nodes" : [
                1,
                2,
                3,
                4,
                5,
                6
            ]
        }
    ],
    "nodes" : [
        {
            "mesh" : 0,
            "name" : "LOD3spShape"
        },
        {
            "children" : [
                0
            ],
            "name" : "Node_0",
            "scale" : [
                0.009999999776482582,
                0.009999999776482582,
                0.009999999776482582
            ],
            "translation" : [
                0,
                0,
                0.7464146614074707
            ]
        },
        {
            "mesh" : 1,
            "name" : "PlaneBody",
            "translation" : [
                0,
                1.1042336225509644,
                5.551958084106445
            ]
        },
        {
            "mesh" : 2,
            "name" : "MainWings",
            "translation" : [
                -1.2343450784683228,
                1.1268267631530762,
                2.4198412895202637
            ]
        },
        {
            "mesh" : 3,
            "name" : "RearWings",
            "translation" : [
                -5.3535685539245605,
                1.4634227752685547,
                4.315711975097656
            ]
        },
        {
            "mesh" : 4,
            "name" : "TopWing",
            "translation" : [
                -5.404958724975586,
                2.6075994968414307,
                5.552890777587891
            ]
        },
        {
            "mesh" : 5,
            "name" : "Engine",
            "translation" : [
                -0.18900713324546814,
                0.7837936282157898,
                7.378368377685547
            ]
        }
    ],
    "materials" : [
        {
            "name" : "blinn3-fx",
            "pbrMetallicRoughness" : {
                "baseColorTexture" : {
                    "index" : 0
                },
                "metallicFactor" : 0
            }
        },
        {
            "doubleSided" : true,
            "name" : "Material.001",
            "pbrMetallicRoughness" : {
                "baseColorTexture" : {
                    "index" : 1
                },
                "metallicFactor" : 0,
                "roughnessFactor" : 0.5
            }
        },
        {
            "doubleSided" : true,
            "name" : "Material.002",
            "pbrMetallicRoughness" : {
                "baseColorTexture" : {
                    "index" : 2
                },
                "metallicFactor" : 0,
                "roughnessFactor" : 0.5
            }
        },
        {
            "doubleSided" : true,
            "name" : "Material.003",
            "pbrMetallicRoughness" : {
                "baseColorTexture" : {
                    "index" : 3
                },
                "metallicFactor" : 0,
                "roughnessFactor" : 0.5
            }
        }
    ],
    "meshes" : [
        {
            "name" : "LOD3spShape",
            "primitives" : [
                {
                    "attributes" : {
                        "POSITION" : 0,
                        "NORMAL" : 1,
                        "TEXCOORD_0" : 2
                    },
                    "indices" : 3,
                    "material" : 0
                }
            ]
        },
        {
            "name" : "Cylinder",
            "primitives" : [
                {
                    "attributes" : {
                        "POSITION" : 4,
                        "NORMAL" : 5,
                        "TEXCOORD_0" : 6
                    },
                    "indices" : 7,
                    "material" : 1
                }
            ]
        },
        {
            "name" : "Plane",
            "primitives" : [
                {
                    "attributes" : {
                        "POSITION" : 8,
                        "NORMAL" : 9,
                        "TEXCOORD_0" : 10
                    },
                    "indices" : 11,
                    "material" : 2
                }
            ]
        },
        {
            "name" : "Plane.001",
            "primitives" : [
                {
                    "attributes" : {
                        "POSITION" : 12,
                        "NORMAL" : 13,
                        "TEXCOORD_0" : 14
                    },
                    "indices" : 15
                }
            ]
        },
        {
            "name" : "Plane.002",
            "primitives" : [
                {
                    "attributes" : {
                        "POSITION" : 16,
                        "NORMAL" : 17,
                        "TEXCOORD_0" : 18
                    },
                    "indices" : 19
                }
            ]
        },
        {
            "name" : "Cylinder.001",
            "primitives" : [
                {
                    "attributes" : {
                        "POSITION" : 20,
                        "NORMAL" : 21,
                        "TEXCOORD_0" : 22
                    },
                    "indices" : 23,
                    "material" : 3
                }
            ]
        }
    ],
    "textures" : [
        {
            "sampler" : 0,
            "source" : 0
        },
        {
            "sampler" : 0,
            "source" : 1
        },
        {
            "sampler" : 0,
            "source" : 2
        },
        {
            "sampler" : 0,
            "source" : 3
        }
    ],
    "images" : [
        {
            "bufferView" : 4,
            "mimeType" : "image/png",
            "name" : "Image_0"
        },
        {
            "bufferView" : 9,
            "mimeType" : "image/png",
            "name" : "Material.001 Base Color"
        },
        {
            "bufferView" : 14,
            "mimeType" : "image/png",
            "name" : "Material"
        },
        {
            "bufferView" : 27,
            "mimeType" : "image/png",
            "name" : "Material"
        }
    ],
    "accessors" : [
        {
            "bufferView" : 0,
            "componentType" : 5126,
            "count" : 2399,
            "max" : [
                96.17990112304688,
                163.97000122070312,
                53.92519760131836
            ],
            "min" : [
                -69.29850006103516,
                9.929369926452637,
                -61.32819747924805
            ],
            "type" : "VEC3"
        },
        {
            "bufferView" : 1,
            "componentType" : 5126,
            "count" : 2399,
            "type" : "VEC3"
        },
        {
            "bufferView" : 2,
            "componentType" : 5126,
            "count" : 2399,
            "type" : "VEC2"
        },
        {
            "bufferView" : 3,
            "componentType" : 5123,
            "count" : 12636,
            "type" : "SCALAR"
        },
        {
            "bufferView" : 5,
            "componentType" : 5126,
            "count" : 154,
            "max" : [
                4.768225193023682,
                0.9655033946037292,
                1.1180909872055054
            ],
            "min" : [
                -6.1995439529418945,
                -1.0405229330062866,
                -1.1180909872055054
            ],
            "type" : "VEC3"
        },
        {
            "bufferView" : 6,
            "componentType" : 5126,
            "count" : 154,
            "type" : "VEC3"
        },
        {
            "bufferView" : 7,
            "componentType" : 5126,
            "count" : 154,
            "type" : "VEC2"
        },
        {
            "bufferView" : 8,
            "componentType" : 5123,
            "count" : 576,
            "type" : "SCALAR"
        },
        {
            "bufferView" : 10,
            "componentType" : 5126,
            "count" : 38,
            "max" : [
                2.5403029918670654,
                0.251831978559494,
                2.3258419036865234
            ],
            "min" : [
                -1.4983097314834595,
                -0.251831978559494,
                -1.9205000400543213
            ],
            "type" : "VEC3"
        },
        {
            "bufferView" : 11,
            "componentType" : 5126,
            "count" : 38,
            "type" : "VEC3"
        },
        {
            "bufferView" : 12,
            "componentType" : 5126,
            "count" : 38,
            "type" : "VEC2"
        },
        {
            "bufferView" : 13,
            "componentType" : 5123,
            "count" : 84,
            "type" : "SCALAR"
        },
        {
            "bufferView" : 15,
            "componentType" : 5126,
            "count" : 36,
            "max" : [
                1.04052734375,
                0.2720887362957001,
                0.6634219884872437
            ],
            "min" : [
                -0.36705175042152405,
                -0.2219683825969696,
                -0.5430358648300171
            ],
            "type" : "VEC3"
        },
        {
            "bufferView" : 16,
            "componentType" : 5126,
            "count" : 36,
            "type" : "VEC3"
        },
        {
            "bufferView" : 17,
            "componentType" : 5126,
            "count" : 36,
            "type" : "VEC2"
        },
        {
            "bufferView" : 18,
            "componentType" : 5123,
            "count" : 84,
            "type" : "SCALAR"
        },
        {
            "bufferView" : 19,
            "componentType" : 5126,
            "count" : 16,
            "max" : [
                0.793644905090332,
                0.49341660737991333,
                0.15108148753643036
            ],
            "min" : [
                -0.6047711968421936,
                -0.6065931916236877,
                -0.15108154714107513
            ],
            "type" : "VEC3"
        },
        {
            "bufferView" : 20,
            "componentType" : 5126,
            "count" : 16,
            "type" : "VEC3"
        },
        {
            "bufferView" : 21,
            "componentType" : 5126,
            "count" : 16,
            "type" : "VEC2"
        },
        {
            "bufferView" : 22,
            "componentType" : 5123,
            "count" : 84,
            "type" : "SCALAR"
        },
        {
            "bufferView" : 23,
            "componentType" : 5126,
            "count" : 42,
            "max" : [
                1.152082085609436,
                0.41650640964508057,
                0.480940043926239
            ],
            "min" : [
                -0.5932116508483887,
                -0.41650640964508057,
                -0.480940043926239
            ],
            "type" : "VEC3"
        },
        {
            "bufferView" : 24,
            "componentType" : 5126,
            "count" : 42,
            "type" : "VEC3"
        },
        {
            "bufferView" : 25,
            "componentType" : 5126,
            "count" : 42,
            "type" : "VEC2"
        },
        {
            "bufferView" : 26,
            "componentType" : 5123,
            "count" : 132,
            "type" : "SCALAR"
        }
    ],
    "bufferViews" : [
        {
            "buffer" : 0,
            "byteLength" : 28788,
            "byteOffset" : 0
        },
        {
            "buffer" : 0,
            "byteLength" : 28788,
            "byteOffset" : 28788
        },
        {
            "buffer" : 0,
            "byteLength" : 19192,
            "byteOffset" : 57576
        },
        {
            "buffer" : 0,
            "byteLength" : 25272,
            "byteOffset" : 76768
        },
        {
            "buffer" : 0,
            "byteLength" : 16302,
            "byteOffset" : 102040
        },
        {
            "buffer" : 0,
            "byteLength" : 1848,
            "byteOffset" : 118344
        },
        {
            "buffer" : 0,
            "byteLength" : 1848,
            "byteOffset" : 120192
        },
        {
            "buffer" : 0,
            "byteLength" : 1232,
            "byteOffset" : 122040
        },
        {
            "buffer" : 0,
            "byteLength" : 1152,
            "byteOffset" : 123272
        },
        {
            "buffer" : 0,
            "byteLength" : 204656,
            "byteOffset" : 124424
        },
        {
            "buffer" : 0,
            "byteLength" : 456,
            "byteOffset" : 329080
        },
        {
            "buffer" : 0,
            "byteLength" : 456,
            "byteOffset" : 329536
        },
        {
            "buffer" : 0,
            "byteLength" : 304,
            "byteOffset" : 329992
        },
        {
            "buffer" : 0,
            "byteLength" : 168,
            "byteOffset" : 330296
        },
        {
            "buffer" : 0,
            "byteLength" : 205203,
            "byteOffset" : 330464
        },
        {
            "buffer" : 0,
            "byteLength" : 432,
            "byteOffset" : 535668
        },
        {
            "buffer" : 0,
            "byteLength" : 432,
            "byteOffset" : 536100
        },
        {
            "buffer" : 0,
            "byteLength" : 288,
            "byteOffset" : 536532
        },
        {
            "buffer" : 0,
            "byteLength" : 168,
            "byteOffset" : 536820
        },
        {
            "buffer" : 0,
            "byteLength" : 192,
            "byteOffset" : 536988
        },
        {
            "buffer" : 0,
            "byteLength" : 192,
            "byteOffset" : 537180
        },
        {
            "buffer" : 0,
            "byteLength" : 128,
            "byteOffset" : 537372
        },
        {
            "buffer" : 0,
            "byteLength" : 168,
            "byteOffset" : 537500
        },
        {
            "buffer" : 0,
            "byteLength" : 504,
            "byteOffset" : 537668
        },
        {
            "buffer" : 0,
            "byteLength" : 504,
            "byteOffset" : 538172
        },
        {
            "buffer" : 0,
            "byteLength" : 336,
            "byteOffset" : 538676
        },
        {
            "buffer" : 0,
            "byteLength" : 264,
            "byteOffset" : 539012
        },
        {
            "buffer" : 0,
            "byteLength" : 390035,
            "byteOffset" : 539276
        }
    ],
    "samplers" : [
        {
            "magFilter" : 9729,
            "minFilter" : 9987
        }
    ],
    "buffers" : [
        {
            "byteLength" : 929312,
            "uri" : "data:application/octet-stream;base64,"
        }
    ]
}
